# xmcd
#
# Track frame offsets:
#	150
#	12377
#	27380
#	42028
#	51490
#	62969
#	74207
#	84223
#	94262
#	108401
#	122701
#
# Disc length: 1770 seconds
# Revision: 0
# Processed by: cddbd v1.5.2PL0 Copyright (c) Steve Scherf et al.
# Submitted via: dBpowerAMP V12.0
#
DISCID=9b06e80b
DTITLE=The Statler Brothers - Oh Happy Day Featuring How Great Thou Art [Columbia] (L)
DYEAR=1969
DGENRE=Gospel
TTITLE0=Oh Happy Day
TTITLE1=How Great Thou Art
TTITLE2=King of Love
TTITLE3=Are You Washed in the Blood
TTITLE4=Pass Me Not
TTITLE5=Daddy Sang Bass
TTITLE6=Less of Me
TTITLE7=Things God Gave Me
TTITLE8=Led Out of Bondage
TTITLE9=Just in Time
TTITLE10=The Fourth Man
EXTD=
EXTT0=
EXTT1=
EXTT2=
EXTT3=
EXTT4=
EXTT5=
EXTT6=
EXTT7=
EXTT8=
EXTT9=
EXTT10=
PLAYORDER=
